<?xml version="1.0" encoding="utf-8"?>
<!-- Generator: Adobe Illustrator 19.1.0, SVG Export Plug-In . SVG Version: 6.00 Build 0)  -->
<svg version="1.1" id="Warstwa_1" xmlns="http://www.w3.org/2000/svg" xmlns:xlink="http://www.w3.org/1999/xlink" x="0px" y="0px"
	 viewBox="0 0 125 125" style="enable-background:new 0 0 125 125;" xml:space="preserve">
<style type="text/css">
	.st0{fill:#B17F2A;}
	.st1{fill:B17F2A;}
	.st2{fill:B17F2A;}
</style>
<polygon class="st0" points="109.3,60.1 109.3,106.4 15.8,106.4 15.8,18.6 63.2,18.6 63.2,15.3 12.5,15.3 12.5,109.7 112.5,109.7 
	112.5,60.1 "/>
<g>
	<g>
		<ellipse class="st0" cx="61.4" cy="34.3" rx="5.8" ry="8.5"/>
		<path class="st0" d="M61.7,49.1L61.7,49.1c-9.8,0-19,8.5-19,19v1.6c0,1.5,1.2,2.7,2.7,2.7h34.1c1.5,0,2.7-1.2,2.7-2.7l0,0
			C82.3,58.3,73.1,49.1,61.7,49.1z"/>
		<g class="st0">
			<g>
				<path d="M33.5,83.9c19.3,0,38.6,0,57.9,0c2.4,0,2.4-3.8,0-3.8c-19.3,0-38.6,0-57.9,0C31.1,80.2,31.1,83.9,33.5,83.9L33.5,83.9z"
					/>
			</g>
		</g>
		<g class="st0">
			<g>
				<path d="M33.5,92.8c19.3,0,38.6,0,57.9,0c2.4,0,2.4-3.8,0-3.8c-19.3,0-38.6,0-57.9,0C31.1,89,31.1,92.8,33.5,92.8L33.5,92.8z"/>
			</g>
		</g>
		<g class="st0">
			<g>
				<path d="M33.5,101.1c19.3,0,38.6,0,57.9,0c2.4,0,2.4-3.8,0-3.8c-19.3,0-38.6,0-57.9,0C31.1,97.3,31.1,101.1,33.5,101.1
					L33.5,101.1z"/>
			</g>
		</g>
	</g>
</g>
</svg>
