<?xml version="1.0" encoding="utf-8"?>
<!-- Generator: Adobe Illustrator 19.1.0, SVG Export Plug-In . SVG Version: 6.00 Build 0)  -->
<svg version="1.1" id="Warstwa_1" xmlns="http://www.w3.org/2000/svg" xmlns:xlink="http://www.w3.org/1999/xlink" x="0px" y="0px"
	 viewBox="0 0 125 125" style="enable-background:new 0 0 125 125;" xml:space="preserve">
<style type="text/css">
	.st0{fill:#B17F2A;}
</style>
<g>
	<polygon class="st0" points="109.3,60.1 109.3,106.4 15.8,106.4 15.8,18.6 63.2,18.6 63.2,15.2 12.5,15.2 12.5,109.8 112.5,109.8 
		112.5,60.1 	"/>
	<path class="st0" d="M65.4,38.5c0.2-1.2,1.4-1.9,2.5-1.7c1.2,0.2,1.9,1.4,1.7,2.5L59.6,86.5c-0.2,1.2-1.4,1.9-2.5,1.7c-1.2-0.2-1.9-1.4-1.7-2.5
		L65.4,38.5z M76.3,47.3c-0.9-0.7-1.1-2.1-0.3-3c0.7-0.9,2.1-1.1,3-0.3l20.4,16.3c0.9,0.7,1.1,2.1,0.3,3c-0.1,0.1-0.2,0.2-0.3,0.3
		L79.1,81c-0.9,0.8-2.3,0.7-3-0.2c-0.8-0.9-0.7-2.3,0.2-3L94.7,62L76.3,47.3z M46,44c0.9-0.7,2.3-0.6,3,0.3c0.7,0.9,0.6,2.3-0.3,3
		L30.3,62l18.4,15.8c0.9,0.8,1,2.1,0.2,3c-0.8,0.9-2.1,1-3,0.2L25.6,63.6c-0.1-0.1-0.2-0.2-0.3-0.3c-0.7-0.9-0.6-2.3,0.3-3L46,44z"
		/>
</g>
</svg>
